#!OML:ASF H:\Terrain\Walking\May29\JustinRory\Justin.ASF
:FULLY-SPECIFIED
:DEGREES
538
root 19.0597 17.1505 -9.97693 13.2072 -47.1964 -17.3652
lowerback 7.38578 -3.39684 10.4476
upperback 1.36742 -3.65565 4.87372
thorax -3.03614 -1.94064 -0.369605
lowerneck -1.89386 -13.5717 -17.5365
upperneck 8.99009 -18.7485 12.3708
head 5.84437 -9.32617 5.13281
rclavicle -4.46272e-014 4.25399e-014
rhumerus -40.9652 -2.26645 -81.3682
rradius 34.0051
rwrist 0.159872
rhand -13.1483 16.0144
rfingers 7.12502
rthumb 12.9503 -13.5637
lclavicle -4.46272e-014 4.25399e-014
lhumerus -42.092 19.1065 75.6451
lradius 29.9422
lwrist -9.70558
lhand -2.44488 43.7147
lfingers 7.12502
lthumb 23.2466 72.3315
rfemur -21.4764 -4.61206 32.9611
rtibia 33.4044
rfoot -10.9004 -8.01998
rtoes 12.7003
lfemur 4.1923 10.999 -8.16689
ltibia 40.1817
lfoot -18.6448 8.73536
ltoes -28.703
539
root 19.008 17.1669 -9.92365 12.7809 -47.5515 -16.6453
lowerback 7.3511 -3.4135 9.99729
upperback 1.24376 -3.70493 4.51151
thorax -3.14919 -1.96391 -0.494625
lowerneck -1.64534 -13.6059 -17.5451
upperneck 9.03463 -18.8764 12.5936
head 5.85973 -9.39159 5.20174
rclavicle 9.44227e-015 1.11319e-014
rhumerus -40.0117 -1.08858 -82.3668
rradius 34.5158
rwrist 0.107114
rhand -12.476 16.4147
rfingers 7.12502
rthumb 13.5982 -13.1212
lclavicle 9.44227e-015 1.11319e-014
lhumerus -40.8595 17.5355 76.7088
lradius 31.129
lwrist -7.68395
lhand -3.26593 43.0093
lfingers 7.12502
lthumb 22.4587 71.7234
rfemur -21.1606 -4.37994 32.2854
rtibia 33.1023
rfoot -10.9308 -7.92463
rtoes 12.9507
lfemur 3.28279 11.5646 -8.38547
ltibia 42.1705
lfoot -17.4845 7.39592
ltoes -29.6328
540
root 18.9266 17.2096 -9.8875 7.30752 -48.2794 -7.82143
lowerback 6.06747 -3.3306 3.27161
upperback 0.760963 -4.16704 3.16019
thorax -2.60692 -2.11028 1.77291
lowerneck -1.32874 -13.5746 -17.8646
upperneck 9.10438 -18.9059 12.7676
head 5.88201 -9.42318 5.31508
rclavicle 1.1783e-013 -1.15295e-014
rhumerus -39.2649 0.673278 -83.1425
rradius 35.3068
rwrist -0.879063
rhand -12.5239 16.2262
rfingers 7.12502
rthumb 13.5521 -13.3128
lclavicle 1.1783e-013 -1.15295e-014
lhumerus -39.8362 16.1347 78.027
lradius 32.4393
lwrist -5.55202
lhand -4.06316 42.6887
lfingers 7.12502
lthumb 21.6933 71.4932
rfemur -22.491 -4.53729 25.7507
rtibia 33.7366
rfoot -11.2576 -7.67553
rtoes 13.5743
lfemur 1.39993 11.4207 -15.1183
ltibia 43.5117
lfoot -15.7424 6.84746
ltoes -29.9958
541
root 18.8877 17.2067 -9.83276 7.08012 -48.6057 -7.34862
lowerback 5.92085 -3.34777 2.73055
upperback 0.672622 -4.22819 3.18042
thorax -2.57557 -2.13546 2.09189
lowerneck -1.22943 -13.6164 -17.8155
upperneck 9.03139 -18.9411 12.5217
head 5.8182 -9.45164 5.23632
rclavicle 1.05256e-013 -7.55382e-015
rhumerus -38.577 2.86513 -84.0096
rradius 36.4674
rwrist -2.63321
rhand -13.0184 15.8122
rfingers 7.12502
rthumb 13.0755 -13.7579
lclavicle 1.05256e-013 -7.55382e-015
lhumerus -38.8078 15.4507 79.0212
lradius 33.9971
lwrist -4.19377
lhand -3.92298 42.6081
lfingers 7.12502
lthumb 21.8279 71.3971
rfemur -22.6984 -4.32472 25.3233
rtibia 34.4211
rfoot -11.7619 -7.54288
rtoes 12.8644
lfemur 0.584739 11.8884 -15.1009
ltibia 45.0101
lfoot -13.6917 5.23846
ltoes -30.1246
542
root 18.8552 17.2062 -9.77301 7.11315 -48.7374 -7.57506
lowerback 6.11478 -3.41565 2.9071
upperback 0.666606 -4.29705 3.19594
thorax -2.70084 -2.1719 2.02974
lowerneck -1.21848 -13.7024 -17.6933
upperneck 8.96852 -19.044 12.397
head 5.78776 -9.50265 5.16946
rclavicle -3.36692e-014 4.77083e-015
rhumerus -38.0267 4.80928 -84.894
rradius 37.8692
rwrist -4.39623
rhand -13.0073 16.1395
rfingers 7.12502
rthumb 13.0862 -13.43
lclavicle -3.36692e-014 4.77083e-015
lhumerus -37.7735 14.7216 79.8308
lradius 35.5807
lwrist -3.42431
lhand -3.55149 42.3666
lfingers 7.12502
lthumb 22.1846 71.1136
rfemur -22.6135 -4.3498 25.4092
rtibia 34.9844
rfoot -12.0963 -7.45999
rtoes 11.0369
lfemur -0.107687 12.1459 -14.4493
ltibia 46.6392
lfoot -11.4481 3.39759
ltoes -29.0118
543
root 18.8257 17.2084 -9.71306 7.2288 -48.8548 -8.04959
lowerback 6.47705 -3.49767 3.28214
upperback 0.652604 -4.36115 3.16025
thorax -2.94759 -2.20861 1.81774
lowerneck -0.976614 -13.6947 -18.0145
upperneck 8.95096 -19.1373 12.9437
head 5.8442 -9.54846 5.38498
rclavicle -2.25869e-014 -1.63003e-014
rhumerus -37.4406 6.02295 -85.6623
rradius 39.1416
rwrist -5.69491
rhand -12.4283 16.408
rfingers 7.12502
rthumb 13.6443 -13.1248
lclavicle -2.25869e-014 -1.63003e-014
lhumerus -36.8316 13.3674 80.6641
lradius 37.1448
lwrist -2.31241
lhand -4.03354 41.6594
lfingers 7.12502
lthumb 21.7218 70.4606
rfemur -22.0591 -4.36646 25.6473
rtibia 34.8073
rfoot -12.132 -7.36608
rtoes 10.0601
lfemur -0.951762 12.4865 -13.5248
ltibia 48.7087
lfoot -9.03818 1.62816
ltoes -27.5651
544
root 18.7915 17.2069 -9.65775 7.49066 -49.1927 -8.44056
lowerback 6.4982 -3.48952 3.49823
upperback 0.690866 -4.3371 3.0917
thorax -2.94121 -2.19908 1.62536
lowerneck -0.812847 -13.6561 -18.4985
upperneck 8.99969 -19.1894 13.5858
head 5.95491 -9.57324 5.65154
rclavicle 2.54444e-014 -7.7526e-015
rhumerus -36.5456 6.9689 -86.4019
rradius 40.1661
rwrist -6.82198
rhand -11.8598 16.4735
rfingers 7.12502
rthumb 14.1921 -13.0217
lclavicle 2.54444e-014 -7.7526e-015
lhumerus -35.8531 11.8199 81.4586
lradius 38.8587
lwrist -0.823995
lhand -5.04644 41.3642
lfingers 7.12502
lthumb 20.7488 70.2749
rfemur -21.6681 -4.13606 25.8175
rtibia 34.566
rfoot -12.2106 -7.23874
rtoes 10.1284
lfemur -2.0214 13.0353 -12.669
ltibia 50.7879
lfoot -6.54254 -0.245129
ltoes -28.1221
545
root 18.7519 17.2088 -9.60416 7.82335 -49.5576 -8.75831
lowerback 6.13992 -3.39005 3.80643
upperback 0.895778 -4.21808 2.91385
thorax -2.56466 -2.13992 1.22753
lowerneck -0.942243 -13.758 -18.339
upperneck 8.85482 -19.318 13.7433
head 5.95311 -9.61903 5.65349
rclavicle -1.69712e-014 4.57205e-015
rhumerus -35.4551 7.64929 -87.0338
rradius 41.2513
rwrist -7.53076
rhand -11.5472 16.591
rfingers 7.12502
rthumb 14.4933 -12.8828
lclavicle -1.69712e-014 4.57205e-015
lhumerus -34.5644 10.5805 82.0373
lradius 40.6626
lwrist -0.10049
lhand -5.449 41.3467
lfingers 7.12502
lthumb 20.362 70.2992
rfemur -21.4172 -3.81371 25.9659
rtibia 34.3659
rfoot -12.2731 -7.21929
rtoes 10.0075
lfemur -3.18744 13.4348 -11.8934
ltibia 52.7926
lfoot -4.22213 -2.49653
ltoes -33.0511
546
root 18.7156 17.2036 -9.54969 8.38678 -49.3933 -9.63793
lowerback 6.72308 -3.71747 3.89317
upperback 0.541924 -4.58626 3.44583
thorax -3.22303 -2.33084 1.82062
lowerneck -0.935286 -13.6148 -18.3468
upperneck 9.09103 -19.0392 12.9564
head 5.89943 -9.51338 5.44678
rclavicle 1.23992e-014 -2.8625e-014
rhumerus -35.2581 9.53725 -87.2282
rradius 42.4451
rwrist -8.12313
rhand -11.4433 16.7857
rfingers 7.12502
rthumb 14.5935 -12.6808
lclavicle 1.23992e-014 -2.8625e-014
lhumerus -34.4264 10.7019 82.6736
lradius 42.6879
lwrist 0.0545032
lhand -5.1254 41.0598
lfingers 7.12502
lthumb 20.6729 69.9788
rfemur -20.9416 -3.77348 26.5488
rtibia 34.1842
rfoot -12.4383 -7.40412
rtoes 9.74679
lfemur -4.07096 13.4072 -10.5808
ltibia 54.7469
lfoot -2.6525 -5.05029
ltoes -35.167
